<svg class="gh-logo" width="141.48" height="34.56" viewBox="0 0 141.48 34.56" xmlns="http://www.w3.org/2000/svg">
    <g id="svgGroup" stroke-linecap="round" fill-rule="evenodd" font-size="9pt" stroke="#000" stroke-width="0.25mm"
       fill="#000" style="stroke:#000;stroke-width:0.25mm;fill:#000">
        <path d="M 62.532 26.64 L 59.292 26.64 L 59.292 7.92 L 62.424 7.92 L 62.424 11.052 Q 63.432 9.54 64.98 8.514 A 6.194 6.194 0 0 1 68.293 7.491 A 7.509 7.509 0 0 1 68.508 7.488 A 7.558 7.558 0 0 1 70.098 7.646 Q 71.173 7.878 71.995 8.447 A 4.726 4.726 0 0 1 72.162 8.568 A 5.67 5.67 0 0 1 74.123 11.336 A 6.896 6.896 0 0 1 74.16 11.448 Q 75.276 9.792 76.806 8.64 Q 78.336 7.488 80.604 7.488 A 7.717 7.717 0 0 1 82.364 7.676 Q 83.655 7.978 84.551 8.766 A 4.678 4.678 0 0 1 85.158 9.414 A 6.837 6.837 0 0 1 86.386 12.032 Q 86.619 12.993 86.648 14.113 A 12.455 12.455 0 0 1 86.652 14.436 L 86.652 26.64 L 83.412 26.64 L 83.412 14.688 Q 83.412 12.744 82.512 11.538 A 2.871 2.871 0 0 0 80.419 10.351 A 3.844 3.844 0 0 0 80.028 10.332 A 4.293 4.293 0 0 0 77.595 11.098 A 5.759 5.759 0 0 0 77.022 11.538 Q 75.636 12.744 74.592 14.364 L 74.592 26.64 L 71.352 26.64 L 71.352 14.688 Q 71.352 12.744 70.452 11.538 A 2.871 2.871 0 0 0 68.359 10.351 A 3.844 3.844 0 0 0 67.968 10.332 Q 66.384 10.332 64.98 11.502 Q 63.576 12.672 62.532 14.256 L 62.532 26.64 Z M 15.12 26.64 L 0 26.64 L 0 1.44 L 15.12 1.44 L 15.12 4.392 L 3.42 4.392 L 3.42 12.06 L 13.5 12.06 L 13.5 14.94 L 3.42 14.94 L 3.42 23.688 L 15.12 23.688 L 15.12 26.64 Z M 34.38 24.876 L 31.932 26.964 L 25.632 19.152 L 19.404 26.892 L 17.1 24.876 L 23.76 17.136 L 17.352 9.72 L 19.872 7.524 L 25.668 15.012 L 31.356 7.668 L 33.768 9.72 L 27.54 16.992 L 34.38 24.876 Z M 96.156 34.56 L 92.916 34.56 L 92.916 12.708 Q 92.916 11.985 92.709 11.507 A 1.514 1.514 0 0 0 92.322 10.962 A 2.059 2.059 0 0 0 91.318 10.486 A 2.877 2.877 0 0 0 90.792 10.44 L 91.476 7.92 A 6.309 6.309 0 0 1 92.998 8.089 Q 94.998 8.587 95.616 10.548 A 4.113 4.113 0 0 1 95.901 10.174 Q 96.219 9.798 96.715 9.352 A 13.884 13.884 0 0 1 96.786 9.288 A 6.805 6.805 0 0 1 97.758 8.574 A 9.205 9.205 0 0 1 98.802 8.028 A 6.104 6.104 0 0 1 100.443 7.564 A 7.879 7.879 0 0 1 101.556 7.488 A 7.738 7.738 0 0 1 105.606 8.622 A 8.038 8.038 0 0 1 108.19 11.13 A 9.887 9.887 0 0 1 108.648 11.898 Q 109.8 14.04 109.8 17.1 A 13.165 13.165 0 0 1 109.547 19.739 A 10.118 10.118 0 0 1 108.648 22.338 A 10.025 10.025 0 0 1 107.232 24.437 A 8.29 8.29 0 0 1 105.642 25.83 Q 103.788 27.072 101.628 27.072 Q 99.972 27.072 98.532 26.406 Q 97.14 25.762 96.219 24.934 A 6.723 6.723 0 0 1 96.156 24.876 L 96.156 34.56 Z M 141.372 18.612 L 128.268 18.612 A 8.672 8.672 0 0 0 128.678 20.421 Q 129.106 21.643 129.903 22.509 A 5.393 5.393 0 0 0 130.104 22.716 A 5.092 5.092 0 0 0 132.849 24.088 A 7.208 7.208 0 0 0 134.1 24.192 Q 135.72 24.192 137.016 23.85 Q 138.312 23.508 139.5 22.968 L 140.256 25.74 A 14.677 14.677 0 0 1 138.695 26.325 A 18.671 18.671 0 0 1 137.34 26.694 A 14.009 14.009 0 0 1 135.507 26.989 A 18.729 18.729 0 0 1 133.704 27.072 A 10.194 10.194 0 0 1 130.915 26.71 A 7.599 7.599 0 0 1 127.314 24.498 Q 125.223 22.216 124.986 18.306 A 16.965 16.965 0 0 1 124.956 17.28 A 12.729 12.729 0 0 1 125.256 14.464 A 10.382 10.382 0 0 1 126.018 12.258 A 8.871 8.871 0 0 1 127.824 9.709 A 8.239 8.239 0 0 1 128.988 8.766 A 7.577 7.577 0 0 1 132.681 7.516 A 9.434 9.434 0 0 1 133.416 7.488 Q 135.859 7.488 137.55 8.446 A 6.197 6.197 0 0 1 137.898 8.658 Q 139.68 9.828 140.58 11.808 A 10.147 10.147 0 0 1 141.453 15.359 A 12.036 12.036 0 0 1 141.48 16.164 A 27.073 27.073 0 0 1 141.375 18.575 A 24.948 24.948 0 0 1 141.372 18.612 Z M 49.896 9.432 L 49.896 7.92 L 52.848 7.92 L 52.848 22.104 A 4.374 4.374 0 0 0 52.885 22.693 Q 52.977 23.37 53.303 23.713 A 1.068 1.068 0 0 0 53.514 23.886 Q 54.18 24.3 54.972 24.3 L 54.288 26.82 A 6.38 6.38 0 0 1 52.753 26.65 Q 50.655 26.129 50.112 24.012 A 7.671 7.671 0 0 1 48.993 25.245 A 10.259 10.259 0 0 1 47.862 26.118 A 5.374 5.374 0 0 1 46.079 26.875 Q 45.352 27.046 44.506 27.069 A 9.794 9.794 0 0 1 44.244 27.072 Q 41.904 27.072 39.996 25.884 A 8.261 8.261 0 0 1 37.327 23.174 A 10.052 10.052 0 0 1 36.954 22.518 A 9.802 9.802 0 0 1 36.007 19.659 A 13.192 13.192 0 0 1 35.82 17.388 A 11.931 11.931 0 0 1 36.179 14.411 A 10.068 10.068 0 0 1 36.954 12.348 Q 38.088 10.116 40.086 8.802 A 8.027 8.027 0 0 1 44.116 7.504 A 9.86 9.86 0 0 1 44.676 7.488 A 8.13 8.13 0 0 1 46.402 7.665 A 6.733 6.733 0 0 1 47.61 8.046 A 9.361 9.361 0 0 1 49.153 8.872 A 7.957 7.957 0 0 1 49.896 9.432 Z M 114.12 20.772 L 114.12 0 L 117.36 0 L 117.36 20.448 A 7.432 7.432 0 0 0 117.428 21.488 Q 117.594 22.663 118.17 23.328 A 2.651 2.651 0 0 0 119.82 24.219 A 3.861 3.861 0 0 0 120.42 24.264 Q 121.104 24.264 121.77 24.102 A 7.989 7.989 0 0 0 122.297 23.956 Q 122.549 23.876 122.765 23.785 A 4.299 4.299 0 0 0 122.904 23.724 L 123.696 26.352 A 6.534 6.534 0 0 1 123.119 26.574 Q 122.832 26.67 122.504 26.756 A 12.593 12.593 0 0 1 122.094 26.856 Q 121.14 27.072 119.988 27.072 A 7.51 7.51 0 0 1 118.228 26.873 A 6.316 6.316 0 0 1 117 26.442 Q 115.668 25.812 114.894 24.408 A 5.672 5.672 0 0 1 114.365 23.021 Q 114.12 22.028 114.12 20.772 Z M 49.608 21.852 L 49.608 11.808 Q 48.636 11.124 47.466 10.71 A 7.338 7.338 0 0 0 45 10.296 A 5.733 5.733 0 0 0 43.21 10.567 A 5.048 5.048 0 0 0 41.958 11.178 A 5.868 5.868 0 0 0 40.151 13.131 A 7.187 7.187 0 0 0 39.888 13.626 A 7.439 7.439 0 0 0 39.257 15.67 A 9.964 9.964 0 0 0 39.132 17.28 Q 39.132 19.296 39.888 20.862 Q 40.644 22.428 41.976 23.31 Q 43.308 24.192 44.964 24.192 Q 46.332 24.192 47.556 23.526 A 7.002 7.002 0 0 0 49.255 22.247 A 6.506 6.506 0 0 0 49.608 21.852 Z M 96.156 12.744 L 96.156 21.96 Q 97.092 22.932 98.316 23.562 Q 99.54 24.192 100.98 24.192 Q 103.39 24.192 104.91 22.326 A 6.253 6.253 0 0 0 104.958 22.266 Q 106.407 20.442 106.484 17.535 A 12.44 12.44 0 0 0 106.488 17.208 A 10.097 10.097 0 0 0 106.345 15.465 Q 106.155 14.383 105.714 13.5 Q 104.94 11.952 103.662 11.124 Q 102.384 10.296 100.836 10.296 A 5.307 5.307 0 0 0 98.81 10.679 A 5.059 5.059 0 0 0 98.046 11.07 A 8.479 8.479 0 0 0 97.135 11.72 Q 96.689 12.087 96.361 12.48 A 4.658 4.658 0 0 0 96.156 12.744 Z M 128.232 15.984 L 138.492 15.984 A 8.768 8.768 0 0 0 138.346 14.333 Q 138.046 12.767 137.124 11.772 A 4.496 4.496 0 0 0 134.618 10.413 A 6.622 6.622 0 0 0 133.344 10.296 A 4.889 4.889 0 0 0 131.504 10.633 A 4.509 4.509 0 0 0 129.888 11.754 A 5.459 5.459 0 0 0 128.829 13.442 Q 128.526 14.184 128.359 15.091 A 11.528 11.528 0 0 0 128.232 15.984 Z"
              vector-effect="non-scaling-stroke"/>
    </g>
</svg>
